<svg width="184" height="44" viewBox="0 0 184 44" fill="none" xmlns="http://www.w3.org/2000/svg">
<path d="M176.608 16.912C176.608 15.232 175.792 14.416 174.112 14.416H167.968V34H164.032V16.912C164.032 15.232 163.168 14.416 161.488 14.416H160.96V10.48H174.112C178.288 10.48 180.544 12.736 180.544 16.912V27.568C180.544 29.248 181.408 30.064 183.088 30.064H183.616V34H183.088C178.864 34 176.608 31.744 176.608 27.568V16.912Z" fill="#F4F781"/>
<path d="M148.305 32.608C145.329 35.584 142.305 35.632 139.329 32.608L133.473 26.704C130.497 23.68 130.545 20.752 133.473 17.776L139.329 11.872C142.305 8.84804 145.329 8.89605 148.305 11.872L154.209 17.776C157.137 20.704 157.185 23.728 154.209 26.704L148.305 32.608ZM151.281 20.464L145.617 14.8C144.417 13.6 143.217 13.6 142.017 14.8L136.401 20.464C135.201 21.664 135.201 22.816 136.401 24.016L142.017 29.68C143.217 30.88 144.417 30.88 145.617 29.68L151.281 24.016C152.433 22.864 152.433 21.616 151.281 20.464Z" fill="#F4F781"/>
<path d="M123.99 4.33602C123.99 5.53602 122.982 6.54402 121.782 6.54402C120.534 6.54402 119.526 5.53602 119.526 4.33602C119.526 3.08802 120.534 2.08002 121.782 2.08002C122.982 2.08002 123.99 3.08802 123.99 4.33602ZM119.814 10.48H123.75V27.568C123.75 29.248 124.566 30.064 126.246 30.064H126.822V34H126.246C122.07 34 119.814 31.744 119.814 27.568V10.48Z" fill="#F4F781"/>
<path d="M102.552 34V10.48H113.448V14.416H108.984C107.304 14.416 106.488 15.232 106.488 16.912V34H102.552Z" fill="#F4F781"/>
<path d="M79.0901 16.912C79.0901 12.736 81.3461 10.48 85.5221 10.48H88.3541C93.7302 10.48 96.8982 12.4 96.8982 15.568C96.8982 17.44 95.7462 19.36 94.0662 21.04L85.7622 29.344L90.3702 33.952L87.5382 36.736L81.7782 30.976C80.2422 29.44 79.0901 28 79.0901 25.024V16.912ZM83.0262 26.512L92.0022 17.536C92.1942 17.344 92.5302 16.912 92.5302 16.24C92.5302 14.992 91.3782 14.416 89.4582 14.416H85.5221C83.8421 14.416 83.0262 15.232 83.0262 16.912V26.512Z" fill="#F4F781"/>
<path d="M57.9428 34V42.976H54.0068V16.912C54.0068 15.232 53.1428 14.416 51.4628 14.416H50.9348V10.48H65.4788C69.7028 10.48 71.9108 12.736 71.9108 16.912V27.568C71.9108 31.744 69.7028 34 65.4788 34H57.9428ZM57.9428 30.064H65.4788C67.1588 30.064 67.9748 29.248 67.9748 27.568V16.912C67.9748 15.232 67.1588 14.416 65.4788 14.416H57.9428V30.064Z" fill="#F4F781"/>
<path d="M40.596 10.48H44.532V27.856L28.644 43.744L25.86 40.96L32.772 34L26.628 27.856V10.48H30.564V26.176L33.78 29.392C34.98 30.592 36.132 30.592 37.332 29.392L40.596 26.176V10.48Z" fill="#F4F781"/>
<path d="M0.64801 0.400024H4.58401V10.48H10.728C14.904 10.48 17.16 12.736 17.16 16.912V27.568C17.16 29.248 18.024 30.064 19.704 30.064H20.232V34H19.704C15.48 34 13.224 31.744 13.224 27.568V16.912C13.224 15.232 12.408 14.416 10.728 14.416H4.58401V34H0.64801V0.400024Z" fill="#F4F781"/>
</svg>
