<svg width="33" height="52" viewBox="0 0 33 52" fill="none" xmlns="http://www.w3.org/2000/svg">
<g clip-path="url(#clip0_6_393)">
<path fill-rule="evenodd" clip-rule="evenodd" d="M31.0096 51.1987C30.271 51.7059 29.3962 51.9778 28.5002 51.9787H5.08228C4.18627 51.9778 3.3115 51.7059 2.57295 51.1987C1.827 50.6901 1.24907 49.9713 0.912559 49.1336C0.639905 48.445 0.529389 47.7028 0.589567 46.9647C0.64435 46.242 0.882765 45.5452 1.28223 44.9404L7.76249 35.3119C7.76791 35.3032 7.77333 35.294 7.77916 35.2852C8.89067 33.6185 9.81005 32.0855 10.466 30.6024C11.1041 29.1594 11.4921 27.7639 11.5634 26.3318L11.5663 21.734L11.5692 17.3267C11.4398 17.2388 11.3189 17.1389 11.2083 17.0283C10.8664 16.6859 10.6336 16.25 10.5394 15.7755C10.4451 15.3009 10.4936 14.8091 10.6787 14.3622C10.8638 13.9152 11.1772 13.533 11.5794 13.264C11.9815 12.995 12.4544 12.8511 12.9383 12.8506H20.6426C21.1664 12.8513 21.6761 13.02 22.097 13.3318C22.5178 13.6437 22.8276 14.0822 22.9807 14.583C23.1339 15.0838 23.1225 15.6205 22.948 16.1144C22.7736 16.6082 22.4454 17.0331 22.0116 17.3267L22.0146 21.734L22.0175 26.3314C22.0887 27.7635 22.4759 29.159 23.1148 30.602C23.7708 32.085 24.6902 33.6172 25.8017 35.2848L32.2999 44.9396C32.6992 45.5444 32.9375 46.2412 32.9921 46.9638C33.0523 47.702 32.9418 48.4441 32.6691 49.1327C32.3328 49.9703 31.7552 50.6891 31.0096 51.1978V51.1987ZM16.8329 6.14224C17.2359 6.14224 17.6299 6.26172 17.9649 6.48557C18.3 6.70942 18.5612 7.02759 18.7154 7.39984C18.8696 7.77209 18.91 8.1817 18.8313 8.57688C18.7527 8.97206 18.5587 9.33506 18.2737 9.61996C17.9887 9.90487 17.6257 10.0989 17.2304 10.1775C16.8352 10.2561 16.4255 10.2158 16.0532 10.0616C15.6809 9.90738 15.3627 9.64627 15.1388 9.31125C14.9149 8.97624 14.7954 8.58236 14.7954 8.17944C14.7954 7.63914 15.01 7.12097 15.3922 6.73892C15.7743 6.35687 16.2925 6.14224 16.8329 6.14224ZM14.259 -0.00146484C14.5962 -0.0014642 14.9257 0.0984548 15.2061 0.285667C15.4865 0.472879 15.7051 0.738983 15.8343 1.05036C15.9634 1.36173 15.9974 1.7044 15.9319 2.03506C15.8663 2.36573 15.7042 2.66955 15.4661 2.90815C15.2279 3.14674 14.9243 3.3094 14.5937 3.37557C14.2632 3.44174 13.9204 3.40845 13.6087 3.2799C13.297 3.15136 13.0304 2.93333 12.8426 2.65336C12.6548 2.3734 12.5543 2.04407 12.5536 1.70697C12.5532 1.48277 12.597 1.26069 12.6825 1.05343C12.768 0.846176 12.8935 0.657813 13.0519 0.499126C13.2103 0.340439 13.3985 0.214545 13.6056 0.128647C13.8127 0.0427492 14.0348 -0.00146527 14.259 -0.00146484Z" fill="white"/>
<path fill-rule="evenodd" clip-rule="evenodd" d="M20.6433 14.543H12.939C12.7417 14.5476 12.5539 14.6293 12.416 14.7705C12.278 14.9117 12.2008 15.1012 12.2008 15.2986C12.2008 15.496 12.278 15.6856 12.416 15.8268C12.5539 15.968 12.7417 16.0497 12.939 16.0543H20.6433C20.8407 16.0497 21.0284 15.968 21.1664 15.8268C21.3044 15.6856 21.3816 15.496 21.3816 15.2986C21.3816 15.1012 21.3044 14.9117 21.1664 14.7705C21.0284 14.6293 20.8407 14.5476 20.6433 14.543ZM24.7814 39.0478L29.9342 46.5553C30.0664 46.752 30.131 47.0003 30.1505 47.2341C30.1771 47.5357 30.1344 47.8395 30.0255 48.1221C29.8974 48.4336 29.6799 48.7003 29.4004 48.8884C29.1328 49.0724 28.8157 49.1709 28.491 49.1709H5.07304C4.74829 49.1709 4.43118 49.0724 4.16366 48.8884C3.88428 48.7001 3.66678 48.4335 3.53851 48.1221C3.42987 47.8394 3.38711 47.5357 3.41348 47.2341C3.43307 47.0003 3.49684 46.752 3.6302 46.5553L8.31046 39.6016C8.60219 39.1653 9.40154 38.7711 10.1209 39.2778C11.1515 40.0041 12.7465 41.4137 15.5555 40.7229C18.9458 39.8895 19.8481 37.2614 21.8069 37.2614C23.7657 37.2614 24.3863 38.464 24.7822 39.0478H24.7814ZM17.5151 28.145C17.8008 28.145 18.0801 28.2297 18.3177 28.3885C18.5552 28.5472 18.7404 28.7728 18.8497 29.0367C18.959 29.3006 18.9876 29.591 18.9318 29.8712C18.876 30.1514 18.7384 30.4087 18.5364 30.6107C18.3343 30.8126 18.0769 30.9502 17.7967 31.0058C17.5164 31.0615 17.226 31.0329 16.962 30.9235C16.6981 30.8141 16.4725 30.6289 16.3138 30.3914C16.1552 30.1538 16.0705 29.8745 16.0706 29.5889C16.0706 29.3992 16.108 29.2114 16.1806 29.0362C16.2532 28.861 16.3596 28.7019 16.4937 28.5678C16.6278 28.4337 16.7871 28.3274 16.9623 28.2548C17.1376 28.1823 17.3254 28.145 17.5151 28.145ZM16.161 22.433C16.3351 22.433 16.5053 22.4846 16.6501 22.5813C16.7948 22.678 16.9076 22.8155 16.9742 22.9763C17.0409 23.1371 17.0583 23.3141 17.0243 23.4848C16.9904 23.6555 16.9065 23.8123 16.7834 23.9354C16.6603 24.0584 16.5035 24.1423 16.3328 24.1762C16.162 24.2102 15.985 24.1928 15.8242 24.1261C15.6634 24.0595 15.5259 23.9467 15.4292 23.802C15.3325 23.6573 15.2808 23.4871 15.2808 23.3131C15.2808 23.1975 15.3035 23.083 15.3477 22.9762C15.3919 22.8694 15.4568 22.7724 15.5385 22.6907C15.6203 22.6089 15.7173 22.5441 15.8241 22.4999C15.9309 22.4557 16.0454 22.433 16.161 22.433ZM14.9437 33.3628C14.5406 33.3628 14.1465 33.4822 13.8113 33.706C13.4761 33.9299 13.2148 34.2481 13.0605 34.6204C12.9062 34.9927 12.8658 35.4024 12.9444 35.7977C13.023 36.193 13.217 36.5561 13.502 36.8411C13.787 37.1261 14.1502 37.3203 14.5455 37.3989C14.9408 37.4776 15.3506 37.4372 15.7231 37.283C16.0955 37.1288 16.4138 36.8676 16.6377 36.5326C16.8617 36.1975 16.9812 35.8035 16.9812 35.4005C16.9812 34.8601 16.7666 34.3419 16.3845 33.9598C16.0024 33.5777 15.4841 33.363 14.9437 33.3628ZM13.2674 17.7469V21.7338L13.2645 26.3716C13.2645 26.3849 13.2645 26.3983 13.2645 26.4133C13.1812 28.0775 12.7444 29.668 12.0272 31.2886C11.3278 32.8699 10.3622 34.4812 9.20025 36.2247C9.19191 36.2376 9.18316 36.2501 9.17399 36.2626L2.69665 45.8882C2.46118 46.2378 2.32781 46.6624 2.2903 47.1062C2.24971 47.5832 2.31929 48.0633 2.49368 48.5092C2.70594 49.0315 3.06858 49.4791 3.53559 49.7951C3.99192 50.1079 4.53224 50.2754 5.08554 50.2755H28.5022C29.0555 50.2755 29.5959 50.108 30.0522 49.7951C30.5184 49.4788 30.8803 49.0312 31.092 48.5092C31.2664 48.0633 31.336 47.5832 31.2954 47.1062C31.2583 46.6624 31.1245 46.2378 30.889 45.8882L24.3875 36.2297L24.385 36.2259C23.2231 34.4825 22.2575 32.8711 21.5581 31.2898C20.8409 29.668 20.4037 28.0775 20.3207 26.4145C20.3207 26.3878 20.3207 26.3616 20.3207 26.3353L20.3178 21.7367V17.7498L13.2674 17.7469Z" fill="#12E5D8"/>
</g>
<defs>
<clipPath id="clip0_6_393">
<rect width="32.4346" height="51.9785" fill="white" transform="translate(0.574097)"/>
</clipPath>
</defs>
</svg>
