<svg width="20" height="20" viewBox="0 0 20 20" fill="none" xmlns="http://www.w3.org/2000/svg">
<path fill-rule="evenodd" clip-rule="evenodd" d="M0 10C0 4.48605 4.48582 0 10 0C15.5142 0 20 4.48605 20 10C20 15.5139 15.5142 20 10 20C4.48582 20 0 15.5139 0 10ZM10.0528 13.5308L14.697 8.88667C15.2065 8.37734 15.2065 7.55152 14.697 7.04214C14.1875 6.53261 13.3621 6.53261 12.8525 7.04214L9.13058 10.7639L7.36515 8.9987C6.85562 8.48917 6.03023 8.48917 5.5207 8.9987C5.01117 9.50804 5.01117 10.3339 5.5207 10.8432L8.20835 13.5308C8.71789 14.0403 9.54332 14.0403 10.0528 13.5308Z" fill="white"/>
</svg>
