<svg width="25" height="24" viewBox="0 0 25 24" fill="none" xmlns="http://www.w3.org/2000/svg">
<path d="M12.5 4.36364C11.8818 4.36364 11.4091 3.87036 11.4091 3.2253V1.13834C11.4091 0.493281 11.8818 0 12.5 0C13.1182 0 13.5909 0.493281 13.5909 1.13834V3.2253C13.5909 3.83241 13.1182 4.36364 12.5 4.36364Z" fill="#7C7C7C"/>
<path d="M12.5 24.0004C11.8818 24.0004 11.4091 23.5071 11.4091 22.862V20.7751C11.4091 20.13 11.8818 19.6367 12.5 19.6367C13.1182 19.6367 13.5909 20.13 13.5909 20.7751V22.862C13.5909 23.5071 13.1182 24.0004 12.5 24.0004Z" fill="#383838"/>
<path d="M8.10086 5.4549C7.72311 5.4549 7.34535 5.27618 7.1187 4.91873L6.09876 3.23873C5.79655 2.7383 5.98543 2.05915 6.51429 1.77319C7.04315 1.48723 7.76088 1.66596 8.06309 2.16638L9.08303 3.84639C9.38523 4.34681 9.19636 5.02596 8.6675 5.31192C8.5164 5.38341 8.28974 5.4549 8.10086 5.4549Z" fill="#7C7C7C"/>
<path d="M17.919 22.3636C17.5413 22.3636 17.1635 22.1849 16.9369 21.8274L15.9169 20.1474C15.6147 19.647 15.8036 18.9678 16.3325 18.6819C16.8613 18.3959 17.5791 18.5746 17.8813 19.0751L18.9012 20.7551C19.2034 21.2555 19.0145 21.9347 18.4857 22.2206C18.2968 22.3278 18.1079 22.3636 17.919 22.3636Z" fill="#383838"/>
<path d="M4.88688 8.72732C4.70785 8.72732 4.52882 8.68962 4.34979 8.57653L2.66692 7.55873C2.16564 7.25716 1.98661 6.54092 2.27306 6.01317C2.5595 5.48542 3.23981 5.29694 3.74109 5.59851L5.42397 6.61632C5.92525 6.91789 6.10427 7.63412 5.81783 8.16187C5.60299 8.53884 5.24494 8.72732 4.88688 8.72732Z" fill="#7C7C7C"/>
<path d="M21.8318 18.5457C21.6528 18.5457 21.4737 18.508 21.2947 18.3949L19.576 17.3771C19.0748 17.0755 18.8957 16.3593 19.1822 15.8315C19.4686 15.3038 20.1489 15.1153 20.6502 15.4169L22.3331 16.4347C22.8344 16.7362 23.0134 17.4525 22.7269 17.9802C22.5479 18.3572 22.1899 18.5457 21.8318 18.5457Z" fill="#7C7C7C"/>
<path d="M3.7253 13.091H1.63834C0.993281 13.091 0.5 12.6183 0.5 12.0001C0.5 11.3819 0.993281 10.9092 1.63834 10.9092H3.7253C4.37036 10.9092 4.86364 11.3819 4.86364 12.0001C4.86364 12.6183 4.33241 13.091 3.7253 13.091Z" fill="#AAAAAA"/>
<path d="M23.3616 13.091H21.2747C20.6296 13.091 20.1364 12.6183 20.1364 12.0001C20.1364 11.3819 20.6296 10.9092 21.2747 10.9092H23.3616C24.0067 10.9092 24.5 11.3819 24.5 12.0001C24.5 12.6183 24.0067 13.091 23.3616 13.091Z" fill="#383838"/>
<path d="M3.20401 18.5457C2.84595 18.5457 2.48789 18.3572 2.27306 17.9802C1.98661 17.4525 2.16564 16.7362 2.66692 16.4347L4.34979 15.4169C4.85107 15.1153 5.53138 15.3038 5.81783 15.8315C6.10427 16.3593 5.92525 17.0755 5.42397 17.3771L3.74109 18.3949C3.59787 18.508 3.41884 18.5457 3.20401 18.5457Z" fill="#7C7C7C"/>
<path d="M20.1131 8.72732C19.7551 8.72732 19.397 8.53884 19.1822 8.16187C18.8957 7.63412 19.0748 6.91789 19.576 6.61632L21.2589 5.59851C21.7602 5.29694 22.4405 5.48542 22.7269 6.01317C23.0134 6.54092 22.8344 7.25716 22.3331 7.55873L20.6502 8.57653C20.4712 8.68962 20.2922 8.72732 20.1131 8.72732Z" fill="#383838"/>
<path d="M7.08092 22.3636C6.89204 22.3636 6.70317 22.3278 6.51429 22.2206C5.98543 21.9347 5.79655 21.2555 6.09876 20.7551L7.1187 19.0751C7.4209 18.5746 8.13864 18.3959 8.6675 18.6819C9.19636 18.9678 9.38523 19.647 9.08303 20.1474L8.06309 21.8274C7.83643 22.1849 7.45868 22.3636 7.08092 22.3636Z" fill="#7C7C7C"/>
<path d="M16.8991 5.4549C16.7102 5.4549 16.5213 5.41916 16.3325 5.31192C15.8036 5.02596 15.6147 4.34681 15.9169 3.84639L16.9369 2.16638C17.2391 1.66596 17.9568 1.48723 18.4857 1.77319C19.0145 2.05915 19.2034 2.7383 18.9012 3.23873L17.8813 4.91873C17.6546 5.24043 17.2769 5.4549 16.8991 5.4549Z" fill="#383838"/>
</svg>
